<svg xmlns="http://www.w3.org/2000/svg" viewBox="0 0 37.7 32.31"><defs><style>.cls-1{fill:#fff;}</style></defs><title>Asset 5</title><g id="Layer_2" data-name="Layer 2"><g id="レイヤー_1" data-name="レイヤー 1"><path class="cls-1" d="M2.69,21.54v8.08a2.69,2.69,0,0,0,2.7,2.69h8.07V21.54Z"/><path class="cls-1" d="M24.23,32.31h8.08A2.68,2.68,0,0,0,35,29.62V21.54H24.23Z"/><path class="cls-1" d="M2.69,10.77A2.68,2.68,0,0,0,0,13.46v2.7a2.69,2.69,0,0,0,2.69,2.69H13.46V10.77Z"/><path class="cls-1" d="M35,10.77H24.23v8.08H35a2.7,2.7,0,0,0,2.7-2.69v-2.7A2.69,2.69,0,0,0,35,10.77Z"/><polygon class="cls-1" points="16.16 10.77 16.16 13.46 16.16 18.85 16.16 21.54 16.16 32.31 21.54 32.31 21.54 21.54 21.54 18.85 21.54 13.46 21.54 10.77 16.16 10.77"/><ellipse class="cls-1" cx="18.85" cy="5.39" rx="3.59" ry="2.69"/><path class="cls-1" d="M34.15,5.52,32.31,0,24.08,3.29a4.33,4.33,0,0,1,.56,2.1,4.4,4.4,0,0,1-.94,2.69h8.61A1.82,1.82,0,0,0,34.15,5.52Z"/><path class="cls-1" d="M13.62,3.29,5.39,0,3.54,5.52A1.83,1.83,0,0,0,5.39,8.08H14a4.28,4.28,0,0,1-.38-4.79Z"/></g></g></svg>