<svg xmlns="http://www.w3.org/2000/svg" viewBox="0 0 32.44 32.44"><defs><style>.cls-1{fill:#fff;}</style></defs><title>Asset 3</title><g id="Layer_2" data-name="Layer 2"><g id="レイヤー_1" data-name="レイヤー 1"><polygon class="cls-1" points="24.33 29.74 2.7 29.74 2.7 2.7 13.52 2.7 13.52 0 0 0 0 32.44 27.04 32.44 27.04 22.75 24.33 25.45 24.33 29.74"/><polygon class="cls-1" points="16.22 5.41 21.07 10.26 22.98 8.34 14.64 0 13.52 0 16.22 2.7 16.22 5.41"/><polygon class="cls-1" points="16.22 10.81 16.22 5.41 16.22 2.7 13.52 0 13.52 2.7 13.52 13.52 17.81 13.52 20.51 10.81 16.22 10.81"/><polygon class="cls-1" points="13.52 27.04 21.63 24.33 16.22 18.93 13.52 27.04"/><polygon class="cls-1" points="18.93 21.63 17.22 19.89 28.02 9.09 27.04 8.11 16.22 18.93 21.63 24.33 32.44 13.52 29.74 10.81 18.93 21.63"/></g></g></svg>