<svg xmlns="http://www.w3.org/2000/svg" viewBox="0 0 88.92 111.63"><defs><style>.cls-1{fill:#fff;}</style></defs><title>Asset 3</title><g id="Layer_2" data-name="Layer 2"><g id="レイヤー_1" data-name="レイヤー 1"><path d="M45.37,111.58l43.5-43.49c0-.31,0-.61,0-.92a44.46,44.46,0,1,0-44.46,44.46C44.77,111.63,45.06,111.59,45.37,111.58Z"/><path class="cls-1" d="M42.69,70q0,7.17-3,11T31,84.73q-5.66,0-8.64-3.73T19.32,70.32V64q0-7.23,3-11T31,49.21q5.65,0,8.64,3.71T42.69,63.6Zm-6.86-7c0-2.86-.4-5-1.18-6.26a4,4,0,0,0-3.67-2,3.89,3.89,0,0,0-3.57,1.87,11.73,11.73,0,0,0-1.22,5.83v8.42a13.23,13.23,0,0,0,1.15,6.28A3.91,3.91,0,0,0,31,79.2a3.85,3.85,0,0,0,3.63-2,13,13,0,0,0,1.17-6Z"/><path class="cls-1" d="M53.38,63.93H57a5.16,5.16,0,0,0,3.87-1.31,4.77,4.77,0,0,0,1.26-3.46,4.21,4.21,0,0,0-1.25-3.26,4.84,4.84,0,0,0-3.43-1.16,5.08,5.08,0,0,0-3.3,1.08,3.47,3.47,0,0,0-1.33,2.81H46a8.45,8.45,0,0,1,1.46-4.85,9.79,9.79,0,0,1,4.08-3.36,13.61,13.61,0,0,1,5.79-1.21c3.65,0,6.52.87,8.59,2.62A8.93,8.93,0,0,1,69,59.06a7.24,7.24,0,0,1-1.45,4.37,9.36,9.36,0,0,1-3.79,3.06,8.66,8.66,0,0,1,4.35,3.14,8.48,8.48,0,0,1,1.44,4.94A9.09,9.09,0,0,1,66.21,82a13.51,13.51,0,0,1-8.89,2.78A12.82,12.82,0,0,1,48.85,82a8.93,8.93,0,0,1-3.29-7.22h6.87A4,4,0,0,0,53.89,78a5.33,5.33,0,0,0,3.59,1.24,5.4,5.4,0,0,0,3.84-1.3,4.47,4.47,0,0,0,1.39-3.43q0-5.18-5.7-5.17H53.38Z"/><path d="M12.7,9.93l.65,1.25a4.6,4.6,0,0,1,.93-1.76,5,5,0,0,1,1.78-1.31,4.64,4.64,0,0,1,2.18-.48,3.21,3.21,0,0,1,2,.8,4.72,4.72,0,0,1,.87-2A4.91,4.91,0,0,1,23,4.87a5.56,5.56,0,0,1,1.75-.52,3.34,3.34,0,0,1,1.55.18,3.78,3.78,0,0,1,1.36,1,6.77,6.77,0,0,1,1.12,1.75l3.52,7.55-2,.92L26.82,8.14A3.87,3.87,0,0,0,26.09,7a2.14,2.14,0,0,0-.85-.54,1.94,1.94,0,0,0-1,0,4.09,4.09,0,0,0-1.07.36,2.88,2.88,0,0,0-1,.69,2.72,2.72,0,0,0-.56.89,2.79,2.79,0,0,0-.18,1,3.53,3.53,0,0,0,.19,1l3.56,7.63-2,.92-3.52-7.55A3.5,3.5,0,0,0,19,10.39a2.12,2.12,0,0,0-.85-.54,2.09,2.09,0,0,0-1-.08,3.64,3.64,0,0,0-1.08.34,3.15,3.15,0,0,0-1.48,1.24,3.19,3.19,0,0,0-.4,1.64l3.91,8.39-2,.91L10.84,10.8Z"/><path d="M40.77,14.57a6.16,6.16,0,0,1-2.42-.28,5.36,5.36,0,0,1-1.92-1.13,5.56,5.56,0,0,1-1.32-1.85,7.11,7.11,0,0,1-.59-2.42l0-.49a7.59,7.59,0,0,1,.26-2.79,6.06,6.06,0,0,1,1.07-2.14,5.43,5.43,0,0,1,1.67-1.4,5.23,5.23,0,0,1,2-.6,5.56,5.56,0,0,1,2.37.3A4.52,4.52,0,0,1,43.61,3a5.7,5.7,0,0,1,1.09,1.9,9.6,9.6,0,0,1,.49,2.44l.07,1-8.57.64a5.59,5.59,0,0,0,.41,1.62A4.17,4.17,0,0,0,38,11.78a3.44,3.44,0,0,0,1.24.8,3.36,3.36,0,0,0,1.57.21,3.69,3.69,0,0,0,1.9-.61A4.89,4.89,0,0,0,44,10.84l1.4.92a5.82,5.82,0,0,1-.67,1,4.88,4.88,0,0,1-.95.85,5.2,5.2,0,0,1-1.29.65A6.16,6.16,0,0,1,40.77,14.57ZM39.65,3.25a2.88,2.88,0,0,0-1.18.33,3,3,0,0,0-.93.77,3.75,3.75,0,0,0-.64,1.19,6.12,6.12,0,0,0-.27,1.58L43,6.64V6.48a5.26,5.26,0,0,0-.3-1.23A3.14,3.14,0,0,0,42,4.18a2.62,2.62,0,0,0-1-.73A3,3,0,0,0,39.65,3.25Z"/><path d="M56.13,4.74a4.31,4.31,0,0,0-.5-.14c-.16,0-.34-.07-.54-.1A2.89,2.89,0,0,0,52,5.85l-1.37,8.9-2.14-.34L50.37,1.88l2.09.33-.19,1.45a3.65,3.65,0,0,1,1.41-1,3.27,3.27,0,0,1,1.84-.18,2.55,2.55,0,0,1,.52.14,1.45,1.45,0,0,1,.4.17Z"/><path d="M59.13,16.86l-2.06-.68L61,4.13l2.06.68Zm2.76-16a1.28,1.28,0,0,1,.58-.74,1.19,1.19,0,0,1,1-.05,1.21,1.21,0,0,1,.8.64,1.25,1.25,0,0,1,0,1,1.24,1.24,0,0,1-.59.73,1.23,1.23,0,0,1-1,0,1.23,1.23,0,0,1-.8-.63A1.26,1.26,0,0,1,61.89.88Z"/><path d="M72.7,5.67,71.29,8.4l2.1,1.09L72.62,11l-2.1-1.09-3.61,7a2.4,2.4,0,0,0-.26.75,1.11,1.11,0,0,0,.07.56.93.93,0,0,0,.29.39,2.57,2.57,0,0,0,.44.29,3.66,3.66,0,0,0,.53.21l.45.14-.8,1.56c-.18,0-.4-.09-.67-.17a5.44,5.44,0,0,1-.92-.39,3.91,3.91,0,0,1-.93-.66,2.31,2.31,0,0,1-.56-.94,2.7,2.7,0,0,1-.08-1.22A4.7,4.7,0,0,1,65,15.87l3.6-7-2-1.06.77-1.49,2,1.06,1.41-2.73Z"/></g></g></svg>