<svg xmlns="http://www.w3.org/2000/svg" viewBox="0 0 41.6 34.33"><title>Asset 6</title><g id="Layer_2" data-name="Layer 2"><g id="レイヤー_1" data-name="レイヤー 1"><path d="M26.8,34.22c4.95-2.49,10.51-4.63,14.55-8.51a.88.88,0,0,0-.85-1.46c-5.38,1.57-10,5.33-14.63,8.39A.92.92,0,0,0,26.8,34.22Z"/><path d="M22,25.34c5.73-7.2,12.55-15,15.77-23.69A.9.9,0,0,0,36.28.78c-3,3.37-5.27,7.33-7.76,11.09C25.81,15.94,23,19.91,20,23.8,19.14,24.94,21.1,26.47,22,25.34Z"/><path d="M14.64,16.64c.41-1.48.87-3,1.39-4.43.26-.73.58-1.46.81-2.2a9.19,9.19,0,0,0,.33-1.1,3,3,0,0,0,.1-1.06c-.08-.36-.66-.45-1-.16a3.92,3.92,0,0,0-.75,1A9.66,9.66,0,0,0,15,9.71a19.85,19.85,0,0,0-.84,2.3c-.5,1.5-.93,3-1.3,4.51C12.64,17.37,14.42,17.48,14.64,16.64Z"/><path d="M2,15.36c0-2.46.09-4.91.16-7.37,0-1.21.13-2.46.09-3.68A25.88,25.88,0,0,0,2.08.67C1.89-.29,1-.15.72.67A23.09,23.09,0,0,0,.28,4.23C.13,5.46.17,6.76.14,8,.08,10.45,0,12.9,0,15.36,0,17.1,2,17.1,2,15.36Z"/></g></g></svg>