<?xml version="1.0" encoding="UTF-8"?><svg xmlns="http://www.w3.org/2000/svg" viewBox="0 0 227.07 86.44"><defs><style>.d{fill:#040000;}</style></defs><g id="a"/><g id="b"><g id="c"><g><g><path class="d" d="M86.56,0c4.64,0,8.91,.88,12.92,2.63,4.01,1.76,7.53,4.14,10.54,7.15,3.01,3.01,5.39,6.52,7.15,10.54,1.76,4.01,2.63,8.41,2.63,12.92s-.88,8.91-2.63,12.92c-1.76,4.01-4.14,7.53-7.15,10.54-3.01,3.01-6.52,5.39-10.54,7.15-3.89,1.88-8.28,2.63-12.92,2.63s-8.91-.88-12.92-2.63c-4.01-1.76-7.53-4.14-10.54-7.15-3.01-3.01-5.39-6.52-7.15-10.54-1.76-4.01-2.63-8.41-2.63-12.92s.88-8.91,2.63-12.92c1.76-4.01,4.14-7.53,7.15-10.54,3.01-3.01,6.52-5.39,10.54-7.15,4.01-1.76,8.28-2.63,12.92-2.63Zm.13,53.57c2.76,0,5.39-.5,7.9-1.63,2.51-1,4.64-2.51,6.52-4.39,1.88-1.88,3.26-4.01,4.39-6.52,1-2.51,1.63-5.14,1.63-7.9s-.5-5.39-1.63-7.9c-1-2.51-2.51-4.64-4.39-6.52-1.88-1.88-4.01-3.26-6.52-4.39-2.51-1-5.14-1.63-7.9-1.63s-5.39,.5-7.9,1.63c-2.51,1-4.64,2.51-6.52,4.39-1.88,1.88-3.26,4.01-4.39,6.52s-1.63,5.14-1.63,7.9,.5,5.39,1.63,7.9c1.13,2.51,2.51,4.64,4.39,6.52,1.88,1.88,4.01,3.26,6.52,4.39,2.51,1.13,5.14,1.63,7.9,1.63Z"/><path class="d" d="M47.55,48.3c2.26-2.26,4.01-5.02,4.89-7.9,1-3.01,1.25-5.9,.88-8.91l12.8-1.63c.63,4.89,.13,9.79-1.38,14.68-1.51,4.89-4.27,9.16-8.03,13.05-3.26,3.26-6.9,5.65-10.91,7.28-4.01,1.63-8.28,2.51-12.55,2.51s-8.53-.75-12.55-2.38c-4.14-1.63-7.78-4.01-11.04-7.28-3.26-3.26-5.65-6.9-7.28-10.91-1.63-4.27-2.38-8.53-2.38-12.8s.88-8.53,2.51-12.55c1.63-4.01,4.01-7.65,7.28-10.91,3.76-3.76,8.15-6.52,12.92-8.03,4.77-1.63,9.66-2.01,14.68-1.38l-1.63,12.8c-3.01-.38-6.02-.13-8.91,.88-2.89,1-5.52,2.63-7.9,4.89-2.01,2.01-3.39,4.14-4.52,6.65-1,2.51-1.51,5.02-1.51,7.65s.5,5.14,1.51,7.65c1,2.51,2.51,4.64,4.39,6.65,2.01,2.01,4.14,3.39,6.65,4.39s5.02,1.51,7.65,1.51,5.14-.5,7.65-1.51,4.77-2.38,6.77-4.39Z"/><path class="d" d="M193.83,0c4.64,0,8.91,.88,12.92,2.63,4.01,1.76,7.53,4.14,10.54,7.15,3.01,3.01,5.39,6.52,7.15,10.54,1.76,4.01,2.63,8.41,2.63,12.92s-.88,8.91-2.63,12.92c-1.76,4.01-4.14,7.53-7.15,10.54-3.01,3.01-6.52,5.39-10.54,7.15-4.01,1.76-8.41,2.63-12.92,2.63s-8.91-.88-12.92-2.63c-4.01-1.76-7.53-4.14-10.54-7.15s-5.39-6.52-7.15-10.54c-1.76-4.01-2.63-8.41-2.63-12.92s.88-8.91,2.63-12.92c1.76-4.01,4.14-7.53,7.15-10.54,3.01-3.01,6.52-5.39,10.54-7.15,4.01-1.76,8.41-2.63,12.92-2.63Zm.13,53.57c2.76,0,5.39-.5,7.9-1.63,2.51-1,4.64-2.51,6.52-4.39,1.88-1.88,3.26-4.01,4.39-6.52,1-2.51,1.63-5.14,1.63-7.9s-.5-5.39-1.63-7.9c-1-2.51-2.51-4.64-4.39-6.52-1.88-1.88-4.01-3.26-6.52-4.39-2.51-1-5.14-1.63-7.9-1.63s-5.39,.5-7.9,1.63c-2.51,1-4.64,2.51-6.52,4.39-1.88,1.88-3.26,4.01-4.39,6.52-1.13,2.51-1.63,5.14-1.63,7.9s.5,5.39,1.63,7.9c1.13,2.51,2.51,4.64,4.39,6.52,1.88,1.88,4.01,3.26,6.52,4.39,2.51,1.13,5.14,1.63,7.9,1.63Z"/><path class="d" d="M154.81,48.3c2.26-2.26,3.89-5.02,4.89-7.9,1-3.01,1.25-5.9,.88-8.91l12.8-1.63c.63,4.89,.13,9.79-1.38,14.68-1.51,4.89-4.27,9.16-8.03,13.05-3.26,3.26-6.9,5.65-10.91,7.28-4.01,1.63-8.28,2.51-12.55,2.51s-8.53-.75-12.55-2.38c-4.14-1.63-7.78-4.01-11.04-7.28-3.26-3.26-5.65-6.9-7.28-10.91-1.63-4.14-2.38-8.28-2.38-12.55s.88-8.53,2.51-12.55c1.63-4.01,4.01-7.65,7.28-10.91,3.76-3.76,8.15-6.52,12.92-8.03,4.89-1.63,9.79-2.01,14.68-1.38l-1.63,12.55c-3.01-.38-6.02-.13-8.91,.88-2.89,1-5.52,2.63-7.9,4.89-2.01,2.01-3.39,4.14-4.52,6.65-1,2.51-1.51,5.02-1.51,7.65s.5,5.14,1.51,7.65c1,2.51,2.51,4.64,4.39,6.65,2.01,2.01,4.14,3.39,6.65,4.39s5.02,1.51,7.65,1.51,5.14-.5,7.65-1.51c2.63-1,4.77-2.38,6.77-4.39Z"/></g><g><path class="d" d="M65.24,86.31l-2.01-11.42v11.42h-2.01v-14.43h2.76l2.01,11.04,2.01-11.04h2.89v14.43h-2.01v-11.42l-2.01,11.42h-1.63Z"/><path class="d" d="M82.17,76.53c0-.5,0-1-.13-1.38s-.13-.75-.38-1c-.13-.25-.38-.5-.63-.63s-.63-.25-1-.25-.75,.13-1,.25-.5,.38-.63,.63-.25,.63-.38,1-.13,.88-.13,1.38v4.64c0,.75,0,1.38,.13,1.88s.25,.88,.5,1.13c.25,.25,.38,.38,.63,.5s.5,.13,.75,.13,.5,0,.75-.13,.5-.25,.63-.5c.25-.25,.38-.63,.5-1.13s.13-1.13,.13-1.88v-.5h-2.01v-1.63h4.14v7.28h-1.51l-.5-1.51c-.13,.13-.13,.38-.25,.5-.13,.25-.25,.38-.38,.5-.13,.13-.38,.25-.63,.38-.25,.13-.5,.13-.75,.13-.38,0-.88,0-1.25-.13s-.75-.25-1-.38c-.25-.13-.63-.38-.75-.63-.25-.25-.38-.63-.63-1.13-.13-.38-.25-.88-.38-1.51s-.13-1.25-.13-2.01v-3.64c0-.75,.13-1.51,.25-2.13,.13-.63,.38-1.25,.75-1.63,.38-.5,.75-.88,1.25-1.13s1.13-.38,2.01-.38c.63,0,1.25,.13,1.76,.38s1,.5,1.25,.88c.38,.38,.63,.88,.75,1.51s.25,1.25,.25,2.01h-2.01v.13Z"/><path class="d" d="M93.46,86.31l-2.01-11.42v11.42h-2.01v-14.43h2.89l2.01,11.04,2.01-11.04h2.76v14.43h-2.01v-11.42l-2.01,11.42h-1.63Z"/><path class="d" d="M110.65,86.31v-14.43h3.14c.75,0,1.38,.13,2.01,.25,.5,.13,1,.38,1.25,.75,.38,.38,.5,.75,.75,1.25s.13,1.13,.13,1.88v5.65c0,.75-.13,1.51-.25,2.01-.13,.63-.38,1-.75,1.51-.38,.38-.75,.63-1.25,.88s-1.13,.25-2.01,.25h-3.01Zm3.14-1.51c.5,0,.88-.13,1.25-.25,.25-.13,.5-.38,.63-.63s.25-.63,.25-1.13v-7.65c0-.38-.13-.75-.25-1s-.38-.5-.63-.63-.75-.25-1.25-.25h-1v11.29h1v.25Z"/><path class="d" d="M127.59,79.54h-2.63v5.14h3.64v1.51h-5.65v-14.3h5.65v1.51h-3.64v4.64h2.63v1.51Z"/><path class="d" d="M137.37,86.44c-.5,0-1,0-1.38-.13-.38-.13-.75-.25-1-.5s-.5-.38-.75-.63-.38-.5-.5-.75-.25-.63-.38-1c-.13-.38-.13-.75-.13-1.13l2.01-.5c0,.38,0,.63,.13,1,0,.38,.13,.75,.38,1s.38,.5,.63,.75,.63,.25,1,.25c1,0,1.51-.5,1.51-1.51,0-.25,0-.5-.13-.75s-.13-.38-.25-.63-.25-.38-.5-.63l-.63-.63-2.63-2.01-.75-.75c-.25-.25-.38-.5-.5-.88s-.25-.63-.25-.88-.13-.63-.13-.88c0-.5,.13-.88,.25-1.38,.13-.38,.38-.75,.63-1.13,.25-.38,.63-.63,1.13-.75s1-.25,1.51-.25,1,0,1.38,.13c.38,.13,.75,.25,1,.38s.5,.38,.75,.63,.38,.5,.5,.63c.13,.25,.25,.63,.38,.88s.13,.63,.13,1l-2.01,.5c0-.25,0-.5-.13-.88,0-.25-.13-.63-.38-.88-.13-.25-.38-.5-.63-.63s-.63-.25-1-.25c-.25,0-.5,0-.75,.13s-.38,.25-.5,.38-.25,.25-.25,.5-.13,.38-.13,.63c0,.38,.13,.75,.25,1.13s.38,.63,.75,1l2.63,2.01c.38,.25,.63,.5,.88,.88s.5,.63,.63,1,.25,.75,.38,1c.13,.38,.13,.75,.13,1.13,0,.5-.13,.88-.25,1.25s-.38,.75-.63,1.13c-.25,.25-.63,.5-1.13,.75-.13,.13-.63,.25-1.25,.25Z"/><path class="d" d="M146.03,71.89h2.01v14.43h-2.01v-14.43Z"/><path class="d" d="M159.45,76.53c0-.5,0-1-.13-1.38s-.13-.75-.38-1c-.13-.25-.38-.5-.63-.63s-.63-.25-1-.25-.75,.13-1,.25-.5,.38-.63,.63-.25,.63-.38,1c-.13,.38-.13,.88-.13,1.38v4.64c0,.75,0,1.38,.13,1.88s.25,.88,.5,1.13,.38,.38,.63,.5,.5,.13,.75,.13,.5,0,.75-.13,.5-.25,.63-.5c.25-.25,.38-.63,.5-1.13s.13-1.13,.13-1.88v-.5h-2.01v-1.63h4.14v7.28h-1.51l-.5-1.51c-.13,.13-.13,.38-.25,.5-.13,.25-.25,.38-.38,.5-.13,.13-.38,.25-.63,.38-.25,.13-.5,.13-.75,.13-.38,0-.88,0-1.25-.13s-.75-.25-1-.38c-.25-.13-.63-.38-.75-.63-.25-.25-.38-.63-.63-1.13-.13-.38-.25-.88-.38-1.51-.13-.63-.13-1.25-.13-2.01v-3.64c0-.75,.13-1.51,.25-2.13s.38-1.25,.75-1.63c.38-.5,.75-.88,1.25-1.13s1.13-.38,2.01-.38c.63,0,1.25,.13,1.76,.38s1,.5,1.25,.88c.38,.38,.63,.88,.75,1.51,.13,.63,.25,1.25,.25,2.01h-2.01v.13Z"/><path class="d" d="M172.38,86.31l-3.64-9.66v9.66h-2.01v-14.43h1.51l3.64,8.91v-8.91h2.01v14.43h-1.51Z"/></g></g></g></g></svg>